<?xml version="1.0" standalone="no"?>
<!DOCTYPE svg PUBLIC "-//W3C//DTD SVG 20010904//EN"
 "http://www.w3.org/TR/2001/REC-SVG-20010904/DTD/svg10.dtd">
<svg version="1.0" xmlns="http://www.w3.org/2000/svg"
 width="389.000000pt" height="389.000000pt" viewBox="0 0 389.000000 389.000000"
 preserveAspectRatio="xMidYMid meet">
<metadata>
Created by potrace 1.14, written by Peter Selinger 2001-2017
</metadata>
<g transform="translate(0.000000,389.000000) scale(0.100000,-0.100000)"
fill="#000000" stroke="none">
<path d="M1789 3886 c-2 -2 -35 -6 -73 -10 -37 -3 -87 -11 -110 -16 -22 -5
-53 -11 -67 -14 -90 -16 -257 -69 -369 -118 -14 -6 -27 -12 -30 -13 -11 -2
-147 -72 -175 -90 -182 -114 -283 -193 -400 -312 -85 -87 -108 -113 -140 -158
-11 -15 -30 -37 -42 -48 -13 -11 -23 -24 -23 -28 0 -4 -18 -33 -39 -65 -21
-33 -51 -81 -67 -109 -15 -27 -36 -65 -46 -83 -10 -18 -18 -38 -18 -44 0 -6
-6 -19 -13 -27 -13 -15 -58 -131 -92 -238 -19 -60 -50 -190 -60 -251 -4 -23
-9 -54 -11 -70 -3 -15 -7 -113 -8 -217 -3 -184 2 -245 39 -445 11 -65 57 -214
95 -310 54 -138 217 -420 265 -460 8 -7 15 -16 15 -20 0 -27 224 -248 345
-340 22 -17 47 -37 55 -44 9 -7 22 -15 30 -19 19 -9 54 -30 60 -37 22 -25 228
-127 349 -174 95 -37 261 -84 325 -92 21 -2 42 -6 45 -9 31 -18 417 -27 546
-12 197 23 444 97 625 186 140 70 336 195 348 223 2 5 7 8 12 8 20 0 192 167
274 265 87 105 85 102 147 201 70 110 177 321 183 358 1 6 4 16 8 21 3 6 20
57 36 115 26 91 38 142 56 235 29 151 28 498 -1 640 -3 17 -7 39 -8 50 -2 11
-8 40 -15 65 -7 25 -14 54 -16 66 -14 79 -115 332 -161 406 -13 21 -23 41 -23
46 0 9 -145 229 -166 252 -8 8 -29 32 -47 54 -36 43 -185 196 -191 196 -2 0
-20 15 -41 34 -173 159 -486 321 -750 389 -112 29 -136 34 -195 43 -24 3 -56
8 -70 11 -30 5 -387 13 -391 9z"/>
</g>
</svg>
